inDegrees=no
num_controls=7
num_derivatives=13
num_iterations=147
num_multipliers=7
num_parameters=0
num_slacks=7
num_states=26
objective=0.497126
objective_accelerations=0.042140
objective_balance=0.003560
objective_effort=0.039640
objective_height=0.405959
objective_ligament=0.005828
solver_duration=1787.346184
status=Solve_Succeeded
success=true
DataType=double
version=3
OpenSimVersion=4.5
endheader
time	/jointset/ground_pelvis/pelvis_tilt/value	/jointset/ground_pelvis/pelvis_tx/value	/jointset/ground_pelvis/pelvis_ty/value	/jointset/hip_r/hip_flexion_r/value	/jointset/hip_r/hip_adduction_r/value	/jointset/hip_r/hip_rotation_r/value	/jointset/back/lumbar_extension/value	/jointset/patellofemoral_r/patellar_flexion_r/value	/jointset/knee_r/knee_flexion_r/value	/jointset/knee_r/knee_adduction_r/value	/jointset/knee_r/knee_rotation_r/value	/jointset/ankle_r/ankle_angle_r/value	/jointset/subtalar_r/subtalar_angle_r/value	/jointset/ground_pelvis/pelvis_tilt/speed	/jointset/ground_pelvis/pelvis_tx/speed	/jointset/ground_pelvis/pelvis_ty/speed	/jointset/hip_r/hip_flexion_r/speed	/jointset/hip_r/hip_adduction_r/speed	/jointset/hip_r/hip_rotation_r/speed	/jointset/back/lumbar_extension/speed	/jointset/patellofemoral_r/patellar_flexion_r/speed	/jointset/knee_r/knee_flexion_r/speed	/jointset/knee_r/knee_adduction_r/speed	/jointset/knee_r/knee_rotation_r/speed	/jointset/ankle_r/ankle_angle_r/speed	/jointset/subtalar_r/subtalar_angle_r/speed	/forceset/tau_hip_flexion_r	/forceset/tau_hip_adduction_r	/forceset/tau_hip_rotation_r	/forceset/tau_knee_flexion_r	/forceset/tau_ankle_angle_r	/forceset/tau_subtalar_angle_r	/forceset/tau_lumbar_extension	lambda_cid13_p0	lambda_cid14_p0	lambda_cid14_p1	lambda_cid14_p2	lambda_cid14_p3	lambda_cid14_p4	lambda_cid14_p5	/jointset/ground_pelvis/pelvis_tilt/accel	/jointset/ground_pelvis/pelvis_tx/accel	/jointset/ground_pelvis/pelvis_ty/accel	/jointset/hip_r/hip_flexion_r/accel	/jointset/hip_r/hip_adduction_r/accel	/jointset/hip_r/hip_rotation_r/accel	/jointset/back/lumbar_extension/accel	/jointset/patellofemoral_r/patellar_flexion_r/accel	/jointset/knee_r/knee_flexion_r/accel	/jointset/knee_r/knee_adduction_r/accel	/jointset/knee_r/knee_rotation_r/accel	/jointset/ankle_r/ankle_angle_r/accel	/jointset/subtalar_r/subtalar_angle_r/accel	gamma_cid13_p0	gamma_cid14_p0	gamma_cid14_p1	gamma_cid14_p2	gamma_cid14_p3	gamma_cid14_p4	gamma_cid14_p5
0	-0.006515407328999004	0.09626030897898721	0.9427240687712087	0.1762555222360518	-0.2321527446830313	-0.2616405850588761	-0.038598046466844	0.07317863873451172	0.07317863873451017	0.1745328545759244	0.1745328547246268	0.03247278518263602	-0.003452036111024798	0	0	0	0	0	0	0	0	0	0	0	0	0	0.2272028124542139	-0.161599397069116	-0.04521137914807117	-0.4126868188568505	0.4137270564110324	-0.1496263298643878	-0.122707783184722	-39.07622229718789	83.0554079408633	-40.62571570767417	-4.273814363848709	-36.65492746178821	-677.6328766520348	55.40453878906939	-1.889272706299633	-1.019497430741099	-0.6098629853720484	8.819454304502296	0.01053109858812826	2.576917499850873	-4.935928796419637	9.485630150703146	9.485630150698274	-2.577133435610108	0.1728602596420894	3.322114476226354	0.7530617318802644	8.657154909001768e-08	3.331299068740581e-08	-6.350921860847671e-07	1.722277862186827e-07	3.898385383341541e-08	-1.755558103147633e-09	-3.039854820381612e-07
0.01	-0.00660325878341458	0.09621089541680584	0.9426947707705292	0.1766811325695577	-0.2321510909372497	-0.2615036361236127	-0.03884713240889823	0.07363988274881902	0.07363988274882234	0.1744043088713269	0.1745297524260365	0.03263608500561432	-0.003413937865438318	-0.0174891302175237	-0.009757167221532977	-0.005844711726953304	0.08466328528594441	0.0002848877845892977	0.02726222452468149	-0.04946197712992697	0.09189759709859863	0.09189759709863904	-0.02550272862218311	-0.000594726089078629	0.03263095969384753	0.007566041561784141	0.224400363213816	-0.174577083769815	-0.04469279723120972	-0.4115868182607063	0.4111078939775971	-0.1366993478026478	-0.1199838670715219	-39.09166231827091	82.72586779705682	-35.14863955782036	-5.056303104678789	-37.72457154833219	-678.0985264706555	66.15113638704217	-1.666556129096219	-0.9349867888409227	-0.5695423561255851	8.220950794568596	0.0305211861975032	2.781785116450663	-4.898050479190169	8.989126310783414	8.989126310789979	-2.505962761787233	-0.1717252351362584	3.229249971824717	0.7502542736695471	1.200147987823122e-07	2.825865123452025e-08	-8.89347168925888e-07	1.728464821266171e-07	7.473523145534403e-08	-1.718131548626216e-07	-3.803164670894325e-07
0.02	-0.00686356612992742	0.09606767809821289	0.9426074722346264	0.1779396127867086	-0.2321479776000601	-0.2610978829055611	-0.03958018178383281	0.07500956309837729	0.07500956309837908	0.1740269118432309	0.174521485628151	0.03312482707670514	-0.003301803423165563	-0.0344911784197441	-0.01876075128231453	-0.01160010704462613	0.1665739767290185	0.0002919182813108737	0.05376085655631641	-0.09679268657629353	0.1816872670510049	0.1816872670510079	-0.04977026469495664	-0.001032899856293416	0.06508844962212576	0.01480723933724993	0.2215979139733938	-0.1875547704705302	-0.04417421531434026	-0.4104868176645919	0.4084887315441446	-0.123772365740929	-0.1172599509583228	-39.1373498754209	82.47937653723933	-29.67753754509543	-5.814404548841396	-38.98798701394717	-677.3063887195913	76.67156284708145	-1.791856303238988	-0.8687807985908004	-0.5919997035159542	8.268935535928234	-0.04504035898541472	2.42419900124151	-4.509675259707569	9.06404472146469	9.064044721444253	-2.330094925728194	0.2041707240149051	3.28742052311251	0.6880929746165997	1.534580484746066e-07	2.320431178163468e-08	-1.143602151767009e-06	1.734651780345516e-07	1.104866090772727e-07	-3.418707516220955e-07	-4.566474521407039e-07
0.03	-0.007291776311762646	0.09583696835771167	0.9424627734932703	0.1800051068503543	-0.232146342804369	-0.2604332115312989	-0.04077584873074069	0.07726672868855668	0.0772667286885553	0.1734137262002338	0.1745115478758976	0.03393549909092256	-0.003119425370212528	-0.05105717566970864	-0.02737643521443207	-0.01734523321691087	0.2461654972001842	-5.202534800042747e-06	0.07903001806864343	-0.1420275596514784	0.2693331189211851	0.269333118921168	-0.07263422516346665	-0.0009604036793640537	0.09683135940114374	0.02157851785469446	0.2141009897398447	-0.1921315119997072	-0.04199468943345606	-0.4001610952516794	0.3909775177752358	-0.112803263648402	-0.1115149288717462	-39.21215046086026	77.30578994956223	-25.89635313384994	-6.329460525484267	-35.64730726956642	-676.671599361427	83.03725201612076	-1.574906934598481	-0.8572257081940692	-0.566676933889994	7.750364330033126	-0.02821972265715532	2.556821540561678	-4.483421858374895	8.552914783547946	8.552914783557855	-2.229814009671984	-0.09200015898858317	3.085564270907945	0.6580068509111968	1.723688196701164e-07	2.083088561311795e-08	-1.278786324476988e-06	1.845928747291185e-07	1.304743683979751e-07	-4.60620334451219e-07	-5.106411505946315e-07
0.04	-0.007882833565841485	0.09552024907435494	0.9422604419182307	0.1828557369241756	-0.2321489135727861	-0.2595201391790489	-0.04241447011379103	0.0803879646701867	0.08038796467018706	0.1725788474721121	0.174502177240703	0.03505716781605194	-0.002872062219964508	-0.06706059286861162	-0.03596265985342274	-0.02312667378138379	0.3236011787642431	-0.0005491945402424816	0.1034410521543053	-0.1853835738047029	0.354501345341497	0.3545013453415684	-0.09410888172236136	-0.0009194764432558359	0.1272877918046227	0.02780425879625227	0.2066040655062927	-0.1967082535288777	-0.03981516355255032	-0.3898353728387627	0.373466304006333	-0.1018341615558672	-0.10576990678518	-39.31453443050189	72.20784395905982	-22.11416260380929	-6.830697182688188	-32.49349932949126	-674.904551430153	89.21042227912504	-1.679340293026692	-0.8628889399654162	-0.5992625819535929	7.837767754506862	-0.09441459685171572	2.252573515908447	-4.133903475315506	8.568519631491061	8.568519631492341	-2.052234143805136	0.1978569358506982	3.030125048004719	0.5789854594392623	1.909799521337337e-07	1.851273600716551e-08	-1.41151542893684e-06	1.959372518522757e-07	1.501371046609203e-07	-5.783120200859023e-07	-5.641742864383049e-07
